<?xml version="1.0" encoding="UTF-8"?>
<svg id="_레이어_1" xmlns="http://www.w3.org/2000/svg" version="1.1" viewBox="0 0 1000 1000">
  <!-- Generator: Adobe Illustrator 29.8.3, SVG Export Plug-In . SVG Version: 2.1.1 Build 3)  -->
  <defs>
    <style>
      .st0 {
        fill: #231815;
      }

      .st1 {
        fill: #040000;
      }
    </style>
  </defs>
  <path class="st1" d="M257.3,597.6c66.3,13.3,151.5,20.6,239.9,20.6s173.5-7.3,239.9-20.6c30.7-6.1,53.2-12.7,69.4-18.8,0-.7,0-1.4,0-2.1,0-149.5-115.4-273.5-265-294.2h0c-.2-1-.4-2-.6-3h100.6c74.3,0,135.5-56.9,142.1-129.7.6-7-4.9-12.9-11.9-12.9h-106.5c-64.2,0-118.4,42.4-136.4,100.6-16.1-41.5-40.8-68.8-63-86.1-40.1-31.4-80.8-37.8-82.5-38-13-1.9-25.1,7-27.1,20-1.9,13,7,25.1,19.9,27,4.8.8,113.1,19.9,121.9,160.1-2.5,11.1-12.8,19.3-24.9,18.5s-22.1-11.7-22.1-24.3c0-8.2-.4-16.1-1-23.5-.4-4.3-4.4-7.4-8.7-6.7-143.9,25.3-253.4,146.8-253.4,292.4s0,1.5,0,2.2c16.1,6,38.6,12.6,69.1,18.7h0Z"/>
  <path class="st1" d="M720.3,755.5l-3.3,1.2-4.4.4c-65.9,6.1-135.2,12.8-206.6,12.8s-184.4-9-266-19.2c55.5,79.9,150.1,132.6,257.2,132.6s201.4-52.5,256.9-132.2c-11.1,1.6-22.4,3.1-34,4.4h0Z"/>
  <path class="st0" d="M844.6,537.1c20.2,10.7,31.3,22.6,31.3,35.3,0,48.8-169.6,88.3-378.7,88.3s-378.7-39.4-378.7-88.3,11-24.6,31-35.3c-85.7,20.5-138.6,48.8-138.6,79.6s84.9,73.7,213.9,94.2c82.5,11.3,178.5,17.8,280.9,17.8s140.5-3.2,203.6-9c1.8-.6,3.7-1.1,5.6-1.3,159.2-18.7,268.6-57.1,268.6-101.6s-53.1-59.1-139-79.6h0Z"/>
</svg>